<mxfile host="app.diagrams.net" agent="Mozilla/5.0 (Windows NT 10.0; Win64; x64) AppleWebKit/537.36 (KHTML, like Gecko) Chrome/126.0.0.0 Safari/537.36 Edg/126.0.0.0" version="24.7.4">
  <diagram name="Page-1" id="msBr3GiUHdKusKifpAUb">
    <mxGraphModel dx="1247" dy="719" grid="1" gridSize="10" guides="1" tooltips="1" connect="1" arrows="1" fold="1" page="1" pageScale="1" pageWidth="1654" pageHeight="1169" math="0" shadow="0">
      <root>
        <mxCell id="0" />
        <mxCell id="1" parent="0" />
        <mxCell id="Ntr3V_1GSItPwPApkCJI-1" value="" style="shape=flexArrow;endArrow=classic;html=1;rounded=0;exitX=0;exitY=0;exitDx=0;exitDy=135;exitPerimeter=0;fillColor=#f8cecc;strokeColor=#b85450;gradientColor=#ea6b66;" edge="1" parent="1">
          <mxGeometry width="50" height="50" relative="1" as="geometry">
            <mxPoint x="660" y="810" as="sourcePoint" />
            <mxPoint x="840" y="812" as="targetPoint" />
          </mxGeometry>
        </mxCell>
        <mxCell id="Ntr3V_1GSItPwPApkCJI-2" value="" style="shape=flexArrow;endArrow=classic;html=1;rounded=0;exitX=0;exitY=0;exitDx=0;exitDy=135;exitPerimeter=0;fillColor=#f8cecc;strokeColor=#b85450;gradientColor=#ea6b66;" edge="1" parent="1">
          <mxGeometry width="50" height="50" relative="1" as="geometry">
            <mxPoint x="660.5" y="735" as="sourcePoint" />
            <mxPoint x="840" y="735" as="targetPoint" />
          </mxGeometry>
        </mxCell>
        <mxCell id="Ntr3V_1GSItPwPApkCJI-3" value="" style="shape=cylinder3;whiteSpace=wrap;html=1;boundedLbl=1;backgroundOutline=1;size=15;fillColor=#b1ddf0;strokeColor=#10739e;direction=east;" vertex="1" parent="1">
          <mxGeometry x="1590" y="677.5" width="210" height="240" as="geometry" />
        </mxCell>
        <mxCell id="Ntr3V_1GSItPwPApkCJI-4" value="" style="whiteSpace=wrap;html=1;aspect=fixed;fillColor=#d5e8d4;strokeColor=#82b366;" vertex="1" parent="1">
          <mxGeometry x="1610" y="735" width="165" height="165" as="geometry" />
        </mxCell>
        <mxCell id="Ntr3V_1GSItPwPApkCJI-5" value="Statement-1&lt;div&gt;Statement-2&lt;/div&gt;&lt;div&gt;&lt;br&gt;&lt;/div&gt;&lt;div&gt;&lt;br&gt;&lt;/div&gt;&lt;div&gt;&lt;br&gt;&lt;/div&gt;&lt;div&gt;&lt;br&gt;&lt;/div&gt;&lt;div&gt;&lt;br&gt;&lt;/div&gt;&lt;div&gt;Statement-3&lt;/div&gt;&lt;div&gt;Resultant&lt;/div&gt;" style="text;html=1;align=left;verticalAlign=middle;resizable=0;points=[];autosize=1;strokeColor=none;fillColor=none;" vertex="1" parent="1">
          <mxGeometry x="1625" y="752.5" width="90" height="140" as="geometry" />
        </mxCell>
        <mxCell id="Ntr3V_1GSItPwPApkCJI-6" value="&lt;font style=&quot;font-size: 35px;&quot;&gt;DATABASE&lt;/font&gt;" style="text;html=1;align=center;verticalAlign=middle;resizable=0;points=[];autosize=1;strokeColor=none;fillColor=none;" vertex="1" parent="1">
          <mxGeometry x="1590" y="915" width="210" height="60" as="geometry" />
        </mxCell>
        <mxCell id="Ntr3V_1GSItPwPApkCJI-7" value="&lt;b&gt;&lt;i&gt;Stored Procedure&lt;/i&gt;&lt;/b&gt;" style="text;html=1;align=center;verticalAlign=middle;resizable=0;points=[];autosize=1;strokeColor=none;fillColor=none;" vertex="1" parent="1">
          <mxGeometry x="1610" y="735" width="120" height="30" as="geometry" />
        </mxCell>
        <mxCell id="Ntr3V_1GSItPwPApkCJI-8" value="&lt;font style=&quot;font-size: 35px;&quot;&gt;APPLICATION&lt;/font&gt;" style="verticalLabelPosition=bottom;verticalAlign=top;html=1;shape=mxgraph.basic.layered_rect;dx=10;outlineConnect=0;whiteSpace=wrap;fillColor=#fad7ac;strokeColor=#b46504;direction=west;" vertex="1" parent="1">
          <mxGeometry x="1200" y="725" width="190" height="190" as="geometry" />
        </mxCell>
        <mxCell id="Ntr3V_1GSItPwPApkCJI-9" value="&lt;font style=&quot;font-size: 25px;&quot;&gt;CLIENT&lt;/font&gt;" style="shape=callout;whiteSpace=wrap;html=1;perimeter=calloutPerimeter;fillColor=#BDA282;strokeColor=#b46504;" vertex="1" parent="1">
          <mxGeometry x="1210" y="645" width="190" height="80" as="geometry" />
        </mxCell>
        <mxCell id="Ntr3V_1GSItPwPApkCJI-10" value="" style="shape=flexArrow;endArrow=classic;html=1;rounded=0;entryX=0.008;entryY=0.416;entryDx=0;entryDy=0;entryPerimeter=0;exitX=0;exitY=0;exitDx=0;exitDy=135;exitPerimeter=0;fillColor=#f8cecc;strokeColor=#b85450;gradientColor=#ea6b66;" edge="1" parent="1" source="Ntr3V_1GSItPwPApkCJI-8" target="Ntr3V_1GSItPwPApkCJI-3">
          <mxGeometry width="50" height="50" relative="1" as="geometry">
            <mxPoint x="1510" y="695" as="sourcePoint" />
            <mxPoint x="1560" y="645" as="targetPoint" />
          </mxGeometry>
        </mxCell>
        <mxCell id="Ntr3V_1GSItPwPApkCJI-11" value="SQL PROCEDURE CALL" style="text;html=1;align=center;verticalAlign=middle;resizable=0;points=[];autosize=1;strokeColor=none;fillColor=none;" vertex="1" parent="1">
          <mxGeometry x="1410" y="745" width="160" height="30" as="geometry" />
        </mxCell>
        <mxCell id="Ntr3V_1GSItPwPApkCJI-12" value="" style="shape=flexArrow;endArrow=classic;html=1;rounded=0;exitX=0.01;exitY=0.754;exitDx=0;exitDy=0;exitPerimeter=0;fillColor=#d5e8d4;strokeColor=#82b366;gradientColor=#97d077;" edge="1" parent="1" source="Ntr3V_1GSItPwPApkCJI-3">
          <mxGeometry width="50" height="50" relative="1" as="geometry">
            <mxPoint x="1389" y="875" as="sourcePoint" />
            <mxPoint x="1389" y="863" as="targetPoint" />
          </mxGeometry>
        </mxCell>
        <mxCell id="Ntr3V_1GSItPwPApkCJI-13" value="FINAL RESULT" style="text;html=1;align=center;verticalAlign=middle;resizable=0;points=[];autosize=1;strokeColor=none;fillColor=none;" vertex="1" parent="1">
          <mxGeometry x="1430" y="865" width="110" height="30" as="geometry" />
        </mxCell>
        <mxCell id="Ntr3V_1GSItPwPApkCJI-14" value="" style="shape=cylinder3;whiteSpace=wrap;html=1;boundedLbl=1;backgroundOutline=1;size=15;fillColor=#b1ddf0;strokeColor=#10739e;direction=east;" vertex="1" parent="1">
          <mxGeometry x="840" y="677.5" width="210" height="240" as="geometry" />
        </mxCell>
        <mxCell id="Ntr3V_1GSItPwPApkCJI-15" value="&lt;font style=&quot;font-size: 35px;&quot;&gt;DATABASE&lt;/font&gt;" style="text;html=1;align=center;verticalAlign=middle;resizable=0;points=[];autosize=1;strokeColor=none;fillColor=none;" vertex="1" parent="1">
          <mxGeometry x="850" y="915" width="210" height="60" as="geometry" />
        </mxCell>
        <mxCell id="Ntr3V_1GSItPwPApkCJI-16" value="&lt;font style=&quot;font-size: 35px;&quot;&gt;APPLICATION&lt;/font&gt;" style="verticalLabelPosition=bottom;verticalAlign=top;html=1;shape=mxgraph.basic.layered_rect;dx=10;outlineConnect=0;whiteSpace=wrap;fillColor=#fad7ac;strokeColor=#b46504;direction=west;" vertex="1" parent="1">
          <mxGeometry x="470" y="725" width="190" height="190" as="geometry" />
        </mxCell>
        <mxCell id="Ntr3V_1GSItPwPApkCJI-17" value="&lt;font style=&quot;font-size: 25px;&quot;&gt;CLIENT&lt;/font&gt;" style="shape=callout;whiteSpace=wrap;html=1;perimeter=calloutPerimeter;fillColor=#BDA282;strokeColor=#b46504;" vertex="1" parent="1">
          <mxGeometry x="480" y="642.5" width="190" height="80" as="geometry" />
        </mxCell>
        <mxCell id="Ntr3V_1GSItPwPApkCJI-18" value="STATEMENT - 1" style="text;html=1;align=center;verticalAlign=middle;resizable=0;points=[];autosize=1;strokeColor=none;fillColor=none;" vertex="1" parent="1">
          <mxGeometry x="660" y="721" width="110" height="30" as="geometry" />
        </mxCell>
        <mxCell id="Ntr3V_1GSItPwPApkCJI-19" value="STATEMENT - 2" style="text;html=1;align=center;verticalAlign=middle;resizable=0;points=[];autosize=1;strokeColor=none;fillColor=none;" vertex="1" parent="1">
          <mxGeometry x="655" y="795" width="110" height="30" as="geometry" />
        </mxCell>
        <mxCell id="Ntr3V_1GSItPwPApkCJI-20" value="" style="shape=flexArrow;endArrow=classic;html=1;rounded=0;entryX=0;entryY=0.779;entryDx=0;entryDy=0;entryPerimeter=0;fillColor=#d5e8d4;gradientColor=#97d077;strokeColor=#82b366;" edge="1" parent="1" target="Ntr3V_1GSItPwPApkCJI-16">
          <mxGeometry width="50" height="50" relative="1" as="geometry">
            <mxPoint x="840" y="767" as="sourcePoint" />
            <mxPoint x="810" y="575" as="targetPoint" />
          </mxGeometry>
        </mxCell>
        <mxCell id="Ntr3V_1GSItPwPApkCJI-21" value="output-1" style="text;html=1;align=center;verticalAlign=middle;resizable=0;points=[];autosize=1;strokeColor=none;fillColor=none;" vertex="1" parent="1">
          <mxGeometry x="762" y="751.5" width="70" height="30" as="geometry" />
        </mxCell>
        <mxCell id="Ntr3V_1GSItPwPApkCJI-22" value="" style="shape=flexArrow;endArrow=classic;html=1;rounded=0;entryX=0;entryY=0.779;entryDx=0;entryDy=0;entryPerimeter=0;fillColor=#d5e8d4;gradientColor=#97d077;strokeColor=#82b366;" edge="1" parent="1">
          <mxGeometry width="50" height="50" relative="1" as="geometry">
            <mxPoint x="840" y="845" as="sourcePoint" />
            <mxPoint x="660" y="845" as="targetPoint" />
          </mxGeometry>
        </mxCell>
        <mxCell id="Ntr3V_1GSItPwPApkCJI-23" value="output-2" style="text;html=1;align=center;verticalAlign=middle;resizable=0;points=[];autosize=1;strokeColor=none;fillColor=none;" vertex="1" parent="1">
          <mxGeometry x="761" y="830" width="70" height="30" as="geometry" />
        </mxCell>
        <mxCell id="Ntr3V_1GSItPwPApkCJI-24" value="" style="shape=flexArrow;endArrow=classic;html=1;rounded=0;exitX=0;exitY=0;exitDx=0;exitDy=135;exitPerimeter=0;fillColor=#f8cecc;strokeColor=#b85450;gradientColor=#ea6b66;" edge="1" parent="1">
          <mxGeometry width="50" height="50" relative="1" as="geometry">
            <mxPoint x="660" y="875" as="sourcePoint" />
            <mxPoint x="840" y="877" as="targetPoint" />
          </mxGeometry>
        </mxCell>
        <mxCell id="Ntr3V_1GSItPwPApkCJI-25" value="STATEMENT - 3" style="text;html=1;align=center;verticalAlign=middle;resizable=0;points=[];autosize=1;strokeColor=none;fillColor=none;" vertex="1" parent="1">
          <mxGeometry x="659" y="861" width="110" height="30" as="geometry" />
        </mxCell>
        <mxCell id="Ntr3V_1GSItPwPApkCJI-26" value="" style="shape=flexArrow;endArrow=classic;html=1;rounded=0;entryX=0;entryY=0.779;entryDx=0;entryDy=0;entryPerimeter=0;fillColor=#d5e8d4;gradientColor=#97d077;strokeColor=#82b366;" edge="1" parent="1">
          <mxGeometry width="50" height="50" relative="1" as="geometry">
            <mxPoint x="840" y="905" as="sourcePoint" />
            <mxPoint x="659" y="906" as="targetPoint" />
          </mxGeometry>
        </mxCell>
        <mxCell id="Ntr3V_1GSItPwPApkCJI-27" value="final&amp;nbsp; result" style="text;html=1;align=center;verticalAlign=middle;resizable=0;points=[];autosize=1;strokeColor=none;fillColor=none;" vertex="1" parent="1">
          <mxGeometry x="757" y="891.5" width="80" height="30" as="geometry" />
        </mxCell>
        <mxCell id="Ntr3V_1GSItPwPApkCJI-28" value="logical decision" style="rhombus;whiteSpace=wrap;html=1;fillColor=#fff2cc;gradientColor=#ffd966;strokeColor=#d6b656;" vertex="1" parent="1">
          <mxGeometry x="520" y="780" width="80" height="80" as="geometry" />
        </mxCell>
        <mxCell id="Ntr3V_1GSItPwPApkCJI-29" value="" style="endArrow=classic;html=1;rounded=0;exitX=0.5;exitY=1;exitDx=0;exitDy=0;" edge="1" parent="1" source="Ntr3V_1GSItPwPApkCJI-28">
          <mxGeometry width="50" height="50" relative="1" as="geometry">
            <mxPoint x="760" y="625" as="sourcePoint" />
            <mxPoint x="660" y="880" as="targetPoint" />
            <Array as="points">
              <mxPoint x="560" y="880" />
            </Array>
          </mxGeometry>
        </mxCell>
        <mxCell id="Ntr3V_1GSItPwPApkCJI-30" value="&lt;span style=&quot;font-size: 25px;&quot;&gt;SERVER&lt;/span&gt;" style="shape=callout;whiteSpace=wrap;html=1;perimeter=calloutPerimeter;fillColor=#8BAEBD;strokeColor=#10739e;" vertex="1" parent="1">
          <mxGeometry x="860" y="610" width="190" height="80" as="geometry" />
        </mxCell>
        <mxCell id="Ntr3V_1GSItPwPApkCJI-31" value="&lt;span style=&quot;font-size: 25px;&quot;&gt;SERVER&lt;/span&gt;" style="shape=callout;whiteSpace=wrap;html=1;perimeter=calloutPerimeter;fillColor=#8BAEBD;strokeColor=#10739e;" vertex="1" parent="1">
          <mxGeometry x="1630" y="612.5" width="190" height="80" as="geometry" />
        </mxCell>
        <mxCell id="Ntr3V_1GSItPwPApkCJI-32" value="" style="endArrow=none;html=1;rounded=0;" edge="1" parent="1">
          <mxGeometry width="50" height="50" relative="1" as="geometry">
            <mxPoint x="1130" y="960" as="sourcePoint" />
            <mxPoint x="1130" y="560" as="targetPoint" />
          </mxGeometry>
        </mxCell>
        <mxCell id="Ntr3V_1GSItPwPApkCJI-34" value="logical decision" style="rhombus;whiteSpace=wrap;html=1;fillColor=#fff2cc;gradientColor=#ffd966;strokeColor=#d6b656;" vertex="1" parent="1">
          <mxGeometry x="1624" y="788" width="65" height="70" as="geometry" />
        </mxCell>
        <mxCell id="Ntr3V_1GSItPwPApkCJI-36" value="" style="endArrow=classic;html=1;rounded=0;entryX=0.5;entryY=0;entryDx=0;entryDy=0;" edge="1" parent="1" target="Ntr3V_1GSItPwPApkCJI-28">
          <mxGeometry width="50" height="50" relative="1" as="geometry">
            <mxPoint x="660" y="845.5" as="sourcePoint" />
            <mxPoint x="670" y="890" as="targetPoint" />
            <Array as="points">
              <mxPoint x="631" y="845.5" />
              <mxPoint x="632" y="762.5" />
              <mxPoint x="560" y="762.5" />
            </Array>
          </mxGeometry>
        </mxCell>
      </root>
    </mxGraphModel>
  </diagram>
</mxfile>
